# xmcd
#
# Track frame offsets: 
#        150
#        22395
#        49475
#        71628
#        89827
#        111531
#        147532
#        181378
#        201215
#        220768
#
# Disc length: 3348 seconds
#
# Revision: 0
# Processed by: cddbd v1.5.2PL0 Copyright (c) Steve Scherf et al.
# Submitted via: ExactAudioCopyFreeDBPlugin 1.0
#
DISCID=ac0d120a
DTITLE=Hundred Seventy Split - HSS
DYEAR=2014
DGENRE=Blues
TTITLE0=The devil to pay
TTITLE1=What the devil loves
TTITLE2=The devil to pay (reprise)
TTITLE3=King of the blues
TTITLE4=Pork pie hat
TTITLE5=I never saw it coming
TTITLE6=Gonna dance on your tombstone
TTITLE7=Let me go
TTITLE8=Columbus stockade blues
TTITLE9=The sound of goodbye
EXTD=
EXTT0=
EXTT1=
EXTT2=
EXTT3=
EXTT4=
EXTT5=
EXTT6=
EXTT7=
EXTT8=
EXTT9=
PLAYORDER=
